<?xml version="1.0" encoding="utf-8"?>
<!-- Generator: Adobe Illustrator 19.0.0, SVG Export Plug-In . SVG Version: 6.00 Build 0)  -->
<svg version="1.1" id="Layer_1" xmlns="http://www.w3.org/2000/svg" xmlns:xlink="http://www.w3.org/1999/xlink" x="0px" y="0px"
	 viewBox="-215 0 792 792" style="enable-background:new -215 0 792 792;" xml:space="preserve">
<style type="text/css">
	.st0{clip-path:url(#SVGID_2_);}
	.st1{fill:#7F7160;}
	.st2{fill:#BFAF9A;}
</style>
<g>
	<defs>
		<path id="SVGID_1_" d="M181,792c-218.4,0-396-177.6-396-396S-37.4,0,181,0s396,177.6,396,396S399.4,792,181,792z"/>
	</defs>
	<clipPath id="SVGID_2_">
		<use xlink:href="#SVGID_1_"  style="overflow:visible;"/>
	</clipPath>
	<g id="Original" class="st0">
		<path id="Right_Antler" class="st1" d="M214.5,457.9c23.3-14,50.4-74.8,14.8-156.2c35.1,39.6,46.7,83.1,37.2,122.4
			c28.6-9.5,137.6-56.2,137.6-115.3S344,242,302.2,234.2S196.4,180.1,201.7,132c17.7,46.7,91.5,66.8,115.8,71.1
			c-9.3-20.9-29.5-47-48.2-62.6c25.5,9.5,56.9,38.2,76,67.2c23,3.9,48.1,14.1,64.4,27.2c13.8-50.9,7.8-114.6-31.1-171.2
			c64.4,50.9,70.4,106.1,57.3,207.9c3.5,9.2,5.3,18.7,4.2,25.1c25.1-31.8,40.3-94.4,21.6-157.7c30.8,60.1,45.6,162-31.1,214
			c-6.4,14.5-22.6,32.9-38.5,41.9l-149.6,74.4L214.5,457.9z"/>
		<path id="Left_Antler" class="st1" d="M143.4,290.4c3.4,37.5-12,100.5-22.4,117.6c-15.6-20.4-35.8-30-63.8-42.3
			c-12.2-52-3.4-131.2,58.7-213.9C41,216.9,16.6,256.7,16.6,347.3l0,0c-46-49.9-59.1-131.8-52.4-206.4
			C-63.5,219-63.6,259.3-38.3,316c-51.8-35.8-84.4-83.2-56.3-151.8c-47.4,45.3-51.2,154,82,210.3c71.1,30,107.9,56,118.5,96.7
			l40-8.8C154.6,404.5,159.1,328.2,143.4,290.4z"/>
		<g id="Left_Ear">
			<path id="XMLID_871_" class="st1" d="M62.4,575.8c-35.6-34.6-86.6-142.7-90.8-172c-0.9-6.1,3.2-11.5,9.3-12.6
				c54.3-10.1,144.5,80.3,152.2,115.5L62.4,575.8z"/>
			<path id="XMLID_10_" class="st2" d="M-18.5,395.3c32.2-5.3,124.7,53.3,124.7,134.8c0,0-37.7,37.3-43,41.7
				c-34.9-34-83.5-139.3-87.7-168.5C-24.9,399.4-22.3,395.9-18.5,395.3z"/>
			<path id="XMLID_870_" class="st1" d="M99.9,560.5c15.5-21.7-1.8-112.3-101.6-156c108,53.4,91.1,131,87.1,139.2
				c-10.6,22.2-42.1-1.3-71.3-56.7C32.6,533.9,76.8,592.8,99.9,560.5z"/>
		</g>
		<g id="Glasses_Left">
			<path id="XMLID_869_" class="st1" d="M77.9,508c-7.1-1.3-19.1-11.1-26.3-17c-6-4.9-15.8-9-20.6-9.9c-11.9-2.3-20.9-2.4-32.1-0.4
				c-1,0.2-2,1.6-1.8,3.4c0.6,4.3,0.8,6.4,1.4,10.7c0.2,1.3,1.3,2.7,2,3.5c1.2,1.4,1.8,2.1,3,3.5c1.1,1.4,2,3.4,2.3,5.5
				c3.5,24.2,8,54.5,32.5,66.4C59.1,583.8,69.8,559,70,542.3c0.1-9.5,4.4-13.6,9.3-12.4L77.9,508z"/>
			<path id="XMLID_868_" class="st2" d="M14.1,496.6c7.2-13.6,45.1,7.5,48.1,22.7c2.9,14.8,3,37-9,47.6c-6.7,5.9-26-5.1-30.9-13.4
				C13.4,538.4,7.6,508.9,14.1,496.6z"/>
		</g>
		<g id="Neck">
			<path id="XMLID_867_" class="st1" d="M81.3,915.4c0-45.1,11.1-205.8,20.5-238.1L252,590.4c50.2,33.5,78.6,222.9,92.3,324.9
				L81.3,915.4L81.3,915.4z"/>
			<path id="XMLID_866_" class="st2" d="M242.5,606c32,4.8,68.8,93.8,97.8,309.3c-83.2,0-171.8,0-255,0
				c0-90.5,14.6-192.4,35.9-213.3c27.4-26.8,40.5-15,63.5-43.5C202,637.3,242.5,606,242.5,606z"/>
		</g>
		<g id="Head">
			<path id="XMLID_865_" class="st1" d="M125.2,689.7c0,0-16.7-1.8-24.9-3.8c-18.8-5.3-36.6-5.3-53.7-4.5
				c-30.4,1.5-37.4-3.2-42.2-10.9l-21-18.8c-7.9-10.3-13.1-33-10.8-34.7c16.2-12,90.3-59,97.6-75c9.4-20.9,15.5-33.9,22-39.1
				c18.3-14.7,11-37.7,11-37.7s7.5-4.7,18.6-7.1c7.2-1.5,28.7-4.7,34-0.5c6.1,4.8,4.2,11.3,23.6,11.3c21,0.1,17.1-6.4,25.3-13
				c7.2-5.7,47.5,0.6,53.6,16.7l21.9,80.5c0,20.8-6.2,42.1-17.5,61.5l-11.2-7.4c-9.7,14.1-23.8,23.1-30.4,29.7
				C191.6,666.4,125.2,689.7,125.2,689.7z"/>
			<path id="XMLID_864_" class="st2" d="M226.6,635.2c-28.9,28.9-82.5,50.4-101.4,50.4s-31.9-8.7-60-8.7s-49.7,3.7-56.3-7.8
				C6.3,664.6-1.2,666-6.7,658c-8.4-12.4-27.9-32.2-18.3-39.3c12.9-9.7,91.1-58.8,99-76.6s14.6-32.8,20.8-37.6
				c15.6-12.1,15.3-30.2,15.3-36.5c0-6.4,38.5-10.8,43.4-7.3c4.4,3.2,4.7,12.6,26.6,12.1s18.4-5.7,26.3-13.4
				c4.4-4.3,40.2-0.2,47.8,15.6l12.2,71.2C266.3,572.7,255.4,606.4,226.6,635.2z"/>
		</g>
		<g id="Nose">
			<path id="Snout" class="st1" d="M17.6,662.9c0,0-18.6,1.8-18.6-9.9c0-11.1,12.8-9.9,14.2-20c1.4-10-0.9-15.4-22.5-17.9
				s-21.6,5.2-21.6,13.3s7.6,12,7.6,19.4c0,15.3,0.1,18.3,12.6,20.8c11.3,2.2,10.6,6,29.4,1.9c19.2-4.2,17.2,3.6,46.6-16.4
				C35.5,668.5,35.3,662.9,17.6,662.9z M-2.2,642.3c-0.8-2.4-0.3-6.2,1-7.9c1.2-1.7,3-2.9,4.8-4.1c1.5-1,3-2.1,4.3-3.5
				c0.8,2.4,0.3,6.2-1,7.9c-1.2,1.7-3,2.9-4.8,4.1C0.7,639.9-0.9,641-2.2,642.3z"/>
			<path id="XMLID_7_" class="st1" d="M35.3,614.6c27.7-16.9,51.4-32.1,54.4-38.3C85.9,589.6,60.8,602.1,35.3,614.6z"/>
		</g>
		<g id="Right_Ear">
			<path id="XMLID_860_" class="st1" d="M252.2,552.9l-16.9-39.5c-3.4-23.7-0.8-45.1,5.6-56.8c42.8-78.1,98-89.4,149.6-85.4
				c4.8,0.4,8.7,4.5,9.4,9.3c6.9,44.9-17.6,104.9-59.3,146.2C293.1,573.8,258.8,560.2,252.2,552.9z"/>
			<path id="XMLID_859_" class="st2" d="M252.5,459.8c38.7-64.9,96.2-90.3,137.6-84.5c3,0.4,5.5,2.8,5.9,5.9
				c6.7,43.8-17,102.1-58.1,142.7c-42.7,42.1-82.9,38.7-90.7,24.6C226.5,511.7,224,507.5,252.5,459.8z"/>
			<path id="XMLID_858_" class="st1" d="M352.1,487.1c-23.1,44.8-61,56.5-74.7,42.8c-4.2-4.2-4.9-11.1-2.2-15.7
				c-5.5,0-14.2-1.1-18.2-5.1c-15.2-15.2,3.1-78,104-120.9c-110.8,53.2-100.6,105.7-96.6,113.9c7,14.5,21.9,10.3,25.9-5.3
				c0.5,18.9-12,12.1-8.1,29.1C284.3,535.3,317.5,539.3,352.1,487.1z"/>
		</g>
		<g id="Glasses_Right">
			<path id="XMLID_857_" class="st1" d="M79.3,529.8c5,1.2,10.3,7.4,12.3,18.2c6.2,33.6,31.9,59.2,65.1,66.8
				c52.1,11.9,66.5-16.6,69.9-65.1c0.2-3.1,2-5.8,4.6-7.2c2.6-1.5,3.8-2.2,6.3-3.7c1.7-0.9,2.4-2.8,2.5-4.9
				c0.2-6.9,0.2-10.3,0.4-17.2c0.1-3-1.5-5.8-4.3-6.6c-27.9-8.2-56.9-12.8-85.9-14.6c-12.8-0.8-28.1-0.1-40.1,3.9
				c-10.7,3.6-24.9,9.8-32.3,8.4L79.3,529.8z"/>
			<path id="XMLID_856_" class="st2" d="M98.5,527c4.7-26.3,87.2-17.1,101.1-0.3c15.3,18.4,15.2,67.6-5.8,78.7
				c-16.7,8.8-55.4-1.7-71.5-15.7C105.1,574.6,95.1,546,98.5,527z"/>
		</g>
	</g>
</g>
</svg>
