<?xml version="1.0" encoding="utf-8"?>
<!-- Generator: Adobe Illustrator 19.0.0, SVG Export Plug-In . SVG Version: 6.00 Build 0)  -->
<svg version="1.1" id="Layer_1" xmlns="http://www.w3.org/2000/svg" xmlns:xlink="http://www.w3.org/1999/xlink" x="0px" y="0px"
	 viewBox="0 0 500 500" style="enable-background:new 0 0 500 500;" xml:space="preserve">
<style type="text/css">
	.st0{opacity:0.25;}
	.st1{fill:#D9DBE8;}
	.st2{fill:#CE3929;}
	.st3{fill:#A31C09;}
</style>
<path class="st0" d="M489.6,379L489.6,379c-18.9-18.9-43.9-27.4-66.8-24.9c-7-4.8-14-9.5-21-14.3c7.8-29-1.1-63.1-25.9-88
	c-19.3-19.3-56.2-14.4-86.4,10.1l-30.6-20.5c-5-3.3-11,2.6-7.6,7.6l20.5,30.6c-24.3,30.1-29.2,66.9-9.9,86.1
	c24.8,24.8,58.9,33.7,87.9,25.9c4.8,7.1,9.6,14.1,14.4,21.2c-2.2,21.5,5.1,44.9,21.8,63.2c0.9,1.2,1.9,2.3,3,3.4
	c18.8,18.9,56.7,11.6,84.4-16.2C501.1,435.5,508.3,397.9,489.6,379z"/>
<g>
	<path class="st1" d="M272.5,209.6l-21.1,31.5c-3.3,5,2.6,11,7.6,7.6l31.5-21.1c2.9-1.9,3.3-6,0.8-8.4l-10.4-10.4
		C278.5,206.3,274.4,206.7,272.5,209.6z"/>
	<path class="st2" d="M382.8,117.2c31.5,31.5,28.3,85.6-7,120.9c-21.3,21.3-64.1,13.1-95.5-18.4s-39.7-74.3-18.4-95.6
		C297.2,88.8,351.4,85.7,382.8,117.2z"/>
	<path class="st3" d="M388.8,40.8c12.1-12.6,38.3,9.3,49.7,20.7c11,11,33.4,37.8,20.7,49.7c-22,14.9-44,29.9-66,44.8
		c-10.5,6.2-27.6,1.4-39.1-10.1c-11.5-11.5-16.2-28.5-10.1-39.1C359,84.8,373.9,62.8,388.8,40.8z"/>
	<path class="st2" d="M389,10.4c-31.2,31.2-33.9,79-6.2,106.7c27.7,27.7,75.6,25,106.6-6.2L389,10.4z"/>
	<path class="st3" d="M473.3,26.7c-27.8-27.8-65.5-35-84.3-16.2s-11.6,56.6,16.2,84.4c27.8,27.8,65.5,35,84.3,16.2
		C508.4,92.3,501.1,54.4,473.3,26.7z"/>
</g>
</svg>
