<svg xmlns="http://www.w3.org/2000/svg" viewBox="0 0 100 100">
   <defs>
      <clipPath id="clip">
         <circle cx="50" cy="50" r="50"/>
      </clipPath>
   </defs>
   <g clip-path="url(#clip)">
      <path class="fg" d="M54.23 57.82c2.94-1.77 6.36-9.45 1.87-19.73 4.43 5 5.9 10.5 4.7 15.44 3.6-1.2 17.37-7.1 17.37-14.56s-7.6-8.44-12.87-9.43c-5.27-.98-13.36-6.83-12.7-12.9 2.25 5.9 11.57 8.43 14.63 8.97-1.17-2.63-3.72-5.93-6.08-7.9 3.22 1.2 7.18 4.82 9.6 8.48 2.9.5 6.07 1.8 8.13 3.44 1.74-6.43.98-14.47-3.93-21.62 8.13 6.43 8.9 13.4 7.23 26.25.45 1.15.67 2.35.53 3.16 3.2-4 5.1-11.92 2.75-19.9 3.9 7.58 5.76 20.45-3.93 27-.8 1.84-2.84 4.16-4.85 5.3l-18.9 9.4-3.52-1.44zM45.25 36.67c.43 4.73-1.5 12.7-2.83 14.85-1.97-2.58-4.52-3.8-8.05-5.35-1.54-6.56-.43-16.56 7.4-27-9.45 8.22-12.53 13.24-12.53 24.68-5.8-6.3-7.46-16.64-6.6-26.06-3.5 9.84-3.52 14.93-.33 22.1-6.52-4.53-10.64-10.5-7.1-19.18-5.97 5.72-6.45 19.45 10.37 26.56 8.97 3.77 13.62 7.06 14.96 12.2l5.05-1.12c1.1-7.3 1.66-16.94-.32-21.7z"/>
      <path class="fg" d="M35.03 72.7c-4.5-4.37-10.94-18.02-11.47-21.72-.1-.77.4-1.45 1.17-1.6C31.6 48.13 42.98 59.54 43.95 64l-8.92 8.72z"/>
      <path class="bg" d="M24.8 49.9c4.08-.66 15.76 6.74 15.76 17.03 0 0-4.76 4.7-5.43 5.27-4.4-4.3-10.55-17.6-11.08-21.28-.05-.5.28-.93.76-1z"/>
      <path class="fg" d="M39.76 70.77c1.96-2.74-.23-14.18-12.83-19.7 13.64 6.75 11.5 16.54 11 17.58-1.34 2.8-5.32-.17-9-7.16 2.33 5.9 7.9 13.34 10.83 9.26z"/>
      <path class="fg" d="M37 64c-.9-.16-2.43-1.26-3.34-2-.76-.62-2-1.14-2.6-1.26-1.5-.3-2.64-.3-4.05-.05-.1 0-.23.2-.2.4l.17 1.36c.02.17.16.35.25.45l.4.45c.13.18.24.43.28.7.44 3.05 1 6.87 4.1 8.38 2.63 1.27 3.98-1.86 4-3.97.02-1.2.4-1.62 1.02-1.47h1l-1-3z"/>
      <path class="bg" d="M28.93 62.7c.9-1.72 5.7.95 6.07 2.87.37 1.87.38 4.67-1.14 6-.84.75-3.28-.64-3.9-1.68-1.12-1.93-1.85-5.65-1.03-7.2z"/>
      <path class="fg" d="M37.4 115.58c0-5.7 1.4-25.98 2.6-30.06l18.96-10.97c6.34 4.23 9.93 28.14 11.66 41.02h-33.2z"/>
      <path class="bg" d="M57.77 76.52c4.04.6 8.68 11.84 12.34 39.05H37.94c0-11.43 1.84-24.3 4.53-26.93 3.46-3.4 5.1-1.9 8.02-5.5 2.18-2.67 7.3-6.62 7.3-6.62z"/>
      <path class="fg" d="M42.95 87.08s-2.1-.22-3.14-.48c-2.35-.67-4.6-.67-6.76-.56-3.84.18-4.72-.4-5.33-1.38l-2.64-2.37c-1-1.33-1.65-4.2-1.36-4.4 2.03-1.5 11.4-7.46 12.3-9.48 1.2-2.63 1.97-4.28 2.8-4.93 2.3-1.87 1.38-4.77 1.38-4.77s.94-.6 2.35-.9c.9-.2 3.62-.6 4.3-.06.76.6.52 1.42 2.97 1.42 2.65 0 2.16-.8 3.2-1.65.9-.72 6 .08 6.76 2.1l2.77 10.18c0 2.62-.8 5.3-2.2 7.76l-1.43-.94c-1.22 1.78-3 2.9-3.84 3.75-3.72 3.73-12.1 6.67-12.1 6.67z"/>
      <path class="bg" d="M55.76 80.2c-3.65 3.65-10.42 6.37-12.8 6.37-2.4 0-4.03-1.1-7.58-1.1s-6.28.46-7.1-1c-.34-.56-1.3-.38-1.98-1.4-1.06-1.55-3.52-4.05-2.3-4.95 1.62-1.23 11.5-7.43 12.5-9.67s1.83-4.14 2.62-4.75c1.97-1.53 1.93-3.8 1.93-4.6 0-.82 4.86-1.37 5.48-.93.55.4.6 1.6 3.36 1.53 2.74-.07 2.3-.72 3.3-1.7.55-.54 5.07-.02 6.03 1.97l1.54 9c0 3.34-1.4 7.6-5.02 11.23z"/>
      <path class="fg" d="M29.37 83.7s-2.35.23-2.35-1.25c0-1.4 1.62-1.25 1.8-2.53.17-1.26-.12-1.94-2.85-2.26s-2.73.66-2.73 1.68c0 1.03.96 1.52.96 2.45 0 1.9.02 2.3 1.6 2.6 1.42.3 1.33.77 3.7.25 2.43-.53 2.18.45 5.9-2.07-3.77 1.8-3.8 1.1-6.03 1.1zm-2.5-2.6c-.1-.3-.04-.78.12-1 .14-.2.36-.37.6-.52.2-.12.37-.26.53-.44.1.3.04.78-.12 1-.14.2-.37.37-.6.52-.2.14-.4.27-.54.44zM31.6 77.6c3.5-2.13 6.5-4.05 6.87-4.83-.48 1.67-3.65 3.25-6.87 4.83z"/>
      <path class="fg" d="M59 69.8l-2.14-4.98c-.43-3-.1-5.7.7-7.17 5.4-9.86 12.38-11.3 18.9-10.78.6.05 1.1.57 1.18 1.17.87 5.67-2.22 13.25-7.5 18.46-6 5.95-10.32 4.23-11.15 3.3z"/>
      <path class="bg" d="M59.03 58.06c4.88-8.2 12.14-11.4 17.37-10.67.38.03.7.33.75.72.84 5.53-2.15 12.9-7.34 18.02-5.37 5.3-10.45 4.9-11.43 3.1-2.62-4.64-2.93-5.17.67-11.2z"/>
      <path class="fg" d="M71.6 61.5c-2.9 5.66-7.7 7.14-9.43 5.4-.53-.52-.62-1.4-.28-1.98-.7 0-1.8-.13-2.3-.64-1.93-1.92.4-9.85 13.12-15.26-14 6.7-12.7 13.34-12.2 14.38.88 1.83 2.77 1.3 3.27-.67.05 2.38-1.5 1.52-1.03 3.67.26 1.2 4.45 1.7 8.82-4.9z"/>
      <path class="fg" d="M56.96 64.4c-3.53-1.03-7.2-1.6-10.85-1.84-1.6-.1-3.53 0-5.04.5-1.35.45-3.12 1.12-4.05.94h-1l1 3c.64.15 1.47.83 1.7 2.2.8 4.23 4.05 7.47 8.24 8.43 6.58 1.5 8.4-2.1 8.83-8.22.02-.37.25-.72.58-.9l.8-.46c.2-.1.3-.35.3-.62l.06-2.16c0-.38-.2-.73-.53-.83z"/>
      <path class="bg" d="M39.58 66.54c.6-3.32 11-2.16 12.77-.04 1.93 2.33 1.92 8.54-.73 9.94-2.1 1.1-7-.22-9.03-1.98-2.2-1.9-3.46-5.52-3.03-7.92z"/>
   </g>
</svg>