<?xml version="1.0" encoding="utf-8"?>
<!-- Generator: Adobe Illustrator 19.0.0, SVG Export Plug-In . SVG Version: 6.00 Build 0)  -->
<svg version="1.1" id="Layer_1" xmlns="http://www.w3.org/2000/svg" xmlns:xlink="http://www.w3.org/1999/xlink" x="0px" y="0px"
	 viewBox="-55 147 500 500" style="enable-background:new -55 147 500 500;" xml:space="preserve">
<style type="text/css">
	.st0{display:none;}
	.st1{display:inline;fill:#A31C09;}
	.st2{display:inline;fill:#D9DBE8;}
	.st3{display:inline;fill:#CE3929;}
	.st4{display:inline;}
	.st5{fill:#A31C09;}
	.st6{fill:#D9DBE8;}
	.st7{fill:#CE3929;}
</style>
<g class="st0">
	<path class="st1" d="M-53.3,246.7c7.2,7.2,35-8.9,62.1-35.9s43.2-54.9,35.9-62.1c-7.2-7.2-35,8.9-62.1,35.9S-60.5,239.5-53.3,246.7
		"/>
	<path class="st2" d="M195,389.4l-43.8-63.2l-27,27l63.3,43.7C191.8,392.7,190.8,393.7,195,389.4z"/>
	<path class="st3" d="M8.8,210.8c27.1-27.1,43.2-54.9,35.9-62.1c26.2,26.2,20.5,64.4-6.5,91.5c-27.1,27.1-63.7,34.3-89.9,8.2
		l0.4-0.4C-41.8,251.3-16.2,235.8,8.8,210.8"/>
	<path id="SVGCleanerId_0" class="st1" d="M32.3,293.1L1.6,262.4c12.9-3.5,25.5-11.2,36.6-22.2c11.1-11.1,18.5-24,21.7-37.2
		l31.3,31.3l25.5,25.5c-3.2,13.2-11.8,24.9-22.9,35.9c-11,11.1-23.1,19.4-35.9,22.9L32.3,293.1z"/>
	<g class="st4">
		<path id="SVGCleanerId_0_1_" class="st5" d="M32.3,293.1L1.6,262.4c12.9-3.5,25.5-11.2,36.6-22.2c11.1-11.1,18.5-24,21.7-37.2
			l31.3,31.3l25.5,25.5c-3.2,13.2-11.8,24.9-22.9,35.9c-11,11.1-23.1,19.4-35.9,22.9L32.3,293.1z"/>
	</g>
	<path class="st3" d="M48.4,351.1c-1.2-11.2,0.8-23.2,6.2-35.7l3.2,3.2c12.9-3.5,24.9-11.8,35.9-22.9c11.1-11,19.7-22.7,22.9-35.9
		l-3.3-3.3l0.1-0.1c12.6-5.4,24.6-7.5,35.9-6.3c21,2.3,33.5,24,24.9,43.3c-6.5,14.7-18.6,31.8-34.7,47.9s-33.2,28.2-47.9,34.7
		C72.4,384.6,50.7,372.1,48.4,351.1"/>
</g>
<g>
	<path class="st6" d="M154.6,374.5l31.5,21.1c5,3.3,11-2.6,7.6-7.6l-21.1-31.5c-1.9-2.9-6-3.3-8.4-0.8l-10.4,10.4
		C151.3,368.5,151.7,372.6,154.6,374.5z"/>
	<path class="st7" d="M62.2,264.2c31.5-31.5,85.6-28.3,120.9,7c21.3,21.3,13.1,64.1-18.4,95.6s-74.3,39.7-95.6,18.4
		C33.8,349.8,30.7,295.6,62.2,264.2z"/>
	<path class="st5" d="M-14.2,258.2c-12.6-12.1,9.3-38.3,20.7-49.7c11-11,37.8-33.4,49.7-20.7c14.9,22,29.9,44,44.8,66
		c6.2,10.5,1.4,27.6-10.1,39.1S62.4,309.1,51.8,303C29.8,288,7.8,273.1-14.2,258.2z"/>
	<path class="st7" d="M-44.6,258c31.2,31.2,79,33.9,106.7,6.2s25-75.6-6.2-106.7L-44.6,258z"/>
	<path class="st5" d="M-28.3,173.6c-27.8,27.8-35,65.5-16.2,84.4s56.6,11.6,84.4-16.2s35-65.5,16.2-84.4S-0.6,145.8-28.3,173.6z"/>
</g>
</svg>
