<svg class="tree" viewBox="15 -40 20 40">
   <path class="trunk" d="m25,5 l-1,32 a2,2 0 0,0 2,0 l-1,-32"/>
   <path d="m25,5 a10,10 0 0 1 -2,6" class="left"/>
   <path d="m25,8 a5,5 0 0 1 -2,3" class="left"/>
   <path d="m25,5 a15,15 0 0 0 3,9" class="right"/>
   <path d="m25,10 a6,6 0 0 0 2,3.5" class="right"/>
   <path d="m25,8 a8,8 0 0 1 -4,8" class="left"/>
   <path d="m25,10 a6,6 0 0 1 -3,6" class="left"/>
   <path d="m25,11 a9,9 0 0 0 6,8" class="right"/>
   <path d="m25,13 a8,8 0 0 0 5,6.5" class="right"/>
   <path d="m25,16 a8,8 0 0 0 3,3.5" class="right"/>
   <path d="m25,12 a9,9 0 0 1 -6,9" class="left"/>
   <path d="m25,14 a8,8 0 0 1 -5,7.5" class="left"/>
   <path d="m25,15 a7,7 0 0 1 -3,6.5" class="left"/>
   <path d="m25,22 a10,10 0 0 0 8,5" class="right"/>
   <path d="m25,23 a9,9 0 0 0 7,4.5" class="right"/>
   <path d="m25,24 a8,8 0 0 0 4,3.5" class="right"/>
   <path d="m25,18 a8,8 0 0 1 -6,8" class="left"/>
   <path d="m25,22 a7,7 0 0 1 -4,4" class="left"/>
   <path d="m25,18 a6,6 0 0 0 6,5" class="right"/>
   <path d="m25,20 a7,7 0 0 0 3,3" class="right"/>
   <path d="m25,23.5 a7,7 0 0 1 -8,5" class="left"/>
   <path d="m25,25.5 a8,8 0 0 1 -6,4" class="left"/>
   <path d="m25,27 a8,8 0 0 1 -3,2.5" class="left"/>
   <path d="m25,27 a9,9 0 0 0 9,4" class="right"/>
   <path d="m25,28 a9,9 0 0 0 8,4" class="right"/>
   <path d="m25,29 a10,10 0 0 0 6,3.5" class="right"/>
   <path d="m25,30 a7,7 0 0 0 3,2.5" class="right"/>
   <path d="m25,29 a9,9 0 0 1 -9,4" class="left"/>
   <path d="m25,30 a9,9 0 0 1 -8,4" class="left"/>
   <path d="m25,31 a10,10 0 0 1 -6,3.5" class="left"/>
   <path d="m25,32 a7,7 0 0 1 -3,2.5" class="left"/>
</svg>

<svg class="tree" viewBox="15 -40 20 40">
   <path class="trunk" d="m25,22 l-0.5,15 a1,1 0 0,0 1,0 l-0.5,-15"/>
   <path d="m25,18 a10,10 0 0 1 -2,6" class="left"/>
   <path d="m25,21 a5,5 0 0 1 -2,3" class="left"/>
   <path d="m25,18 a15,15 0 0 0 3,9" class="right"/>
   <path d="m25,23 a6,6 0 0 0 2,3.5" class="right"/>
   <path d="m25,21 a8,8 0 0 1 -4,8" class="left"/>
   <path d="m25,23 a6,6 0 0 1 -3,6" class="left"/>
   <path d="m25,24 a9,9 0 0 0 6,8" class="right"/>
   <path d="m25,26 a8,8 0 0 0 5,6.5" class="right"/>
   <path d="m25,29 a8,8 0 0 0 3,3.5" class="right"/>
   <path d="m25,25 a9,9 0 0 1 -6,9" class="left"/>
   <path d="m25,27 a8,8 0 0 1 -5,7.5" class="left"/>
   <path d="m25,28 a7,7 0 0 1 -3,6.5" class="left"/>
</svg>